General
      Complete name : Le.Fabuleux.Destin.d.Amelie.Poulain.2001.BRRip.H264.AAC.5.1ch.Gopo.mp4
      Format : MPEG-4
      Format profile : Base Media
      Codec ID : isom
      File size : 2.00 GiB
      Duration : 2h 1mn
      Overall bit rate : 2 349 Kbps
      Encoded date : UTC 2009-12-31 09:04:10
      Tagged date : UTC 2009-12-31 09:04:10
      Writing application : Yamb 2.1.0.0 [http://yamb.unite-video.com]
   Video #2
      ID : 2
      Format : AVC
      Format/Info : Advanced Video Codec
      Format profile : High@L4.1
      Format settings, CABAC : Yes
      Format settings, ReFrames : 5 frames
      Codec ID : avc1
      Codec ID/Info : Advanced Video Coding
      Duration : 2h 1mn
      Bit rate mode : Variable
      Bit rate : 2 020 Kbps
      Maximum bit rate : 14.5 Mbps
      Width : 1 280 pixels
      Height : 544 pixels
      Display aspect ratio : 2.35:1
      Frame rate mode : Constant
      Frame rate : 23.976 fps
      Resolution : 24 bits
      Colorimetry : 4:2:0
      Scan type : Progressive
      Bits/(Pixel*Frame) : 0.121
      Stream size : 1.72 GiB (86%)
      Writing library : x264 core 79 r1360 528c100
      Encoding settings : cabac=1 / ref=5 / deblock=1:0:0 / analyse=0x3:0x113 / me=umh / subme=8 / psy=1 / psy_rd=1.0:0.0 / mixed_ref=1 / me_range=16 / chroma_me=1 / trellis=2 / 8x8dct=1 / cqm=0 / deadzone=21,11 / chroma_qp_offset=-2 / threads=1 / nr=0 / decimate=1 / mbaff=0 / constrained_intra=0 / bframes=3 / b_pyramid=0 / b_adapt=2 / b_bias=0 / direct=3 / wpredb=1 / wpredp=2 / keyint=250 / keyint_min=25 / scenecut=40 / rc_lookahead=30 / rc=2pass / mbtree=1 / bitrate=2020 / ratetol=1.0 / qcomp=0.50 / qpmin=10 / qpmax=51 / qpstep=4 / cplxblur=20.0 / qblur=0.5 / vbv_maxrate=24000 / vbv_bufsize=24000 / ip_ratio=1.10 / aq=1:1.00
      Encoded date : UTC 2009-12-28 13:47:30
      Tagged date : UTC 2009-12-31 09:07:53
   Audio #1
      ID : 1
      Format : AAC
      Format/Info : Advanced Audio Codec
      Format version : Version 4
      Format profile : LC
      Format settings, SBR : No
      Codec ID : 40
      Duration : 2h 1mn
      Bit rate mode : Variable
      Bit rate : 325 Kbps
      Maximum bit rate : 483 Kbps
      Channel(s) : 6 channels
      Channel positions : Front: L C R, Rear: L R, LFE
      Sampling rate : 48.0 KHz
      Resolution : 16 bits
      Stream size : 283 MiB (14%)
      Encoded date : UTC 2009-12-31 09:04:10
      Tagged date : UTC 2009-12-31 09:07:53
	Sample : YES
	Subtitle : English,Romanian

PLOT

Amelie, an innocent and naive girl in Paris, with her own sense of justice, decides to help those around her and along the way, discovers love.
Director: Jean-Pierre Jeunet
CASTING 
     
      Audrey Tautou	... 	Amélie Poulain
	Mathieu Kassovitz	... 	Nino Quincampoix
	Rufus	... 	Raphaël Poulain
	Lorella Cravotta	... 	Amandine Poulain
	Serge Merlin	... 	Raymond Dufayel
	Jamel Debbouze	... 	Lucien
	Clotilde Mollet	... 	Gina
	Claire Maurier	... 	Madame Suzanne - la patronne du café
	Isabelle Nanty	... 	Georgette
	Dominique Pinon	... 	Joseph
	Artus de Penguern	... 	Hipolito
	Yolande Moreau	... 	Madeleine Wallace
	Urbain Cancelier	... 	Collignon
	Maurice Bénichou	... 	Dominique Bretodeau
	Michel Robin	... 	Mr. Collignon

SOURCE: Le.Fabuleux.Destin.d.Amelie.Poulain.2001.720p.BluRay.x264-SiNNERS

Notes: For best performance I suggest you to use KMPlayer(find it with google) for playback
I haven't tested the movies on a PS3 or Xbox or other devices than PC because I don't own one of them but feel free to test them if you have the oportunity.
